<svg width="58" height="33" viewBox="0 0 58 33" fill="none" xmlns="http://www.w3.org/2000/svg">
<path d="M56.047 1.49526C55.25 0.698507 54.1692 0.250916 53.0422 0.250916C51.9153 0.250916 50.8345 0.698507 50.0375 1.49526L29 22.5328L7.96247 1.49526C7.16091 0.721087 6.08735 0.292709 4.97301 0.302392C3.85868 0.312075 2.79272 0.759045 2.00474 1.54703C1.21675 2.33501 0.769791 3.40097 0.760108 4.5153C0.750425 5.62964 1.1788 6.7032 1.95297 7.50476L25.9952 31.547C26.7922 32.3438 27.873 32.7914 29 32.7914C30.1269 32.7914 31.2077 32.3438 32.0047 31.547L56.047 7.50476C56.8437 6.70776 57.2913 5.62696 57.2913 4.50001C57.2913 3.37306 56.8437 2.29225 56.047 1.49526V1.49526Z" fill="black"/>
</svg>
